<svg id="Layer_1" data-name="Layer 1" xmlns="http://www.w3.org/2000/svg" viewBox="0 0 100 100"><defs><style>.cls-1{fill:#666;}.cls-2{fill:#1a1a1a;}</style></defs><path class="cls-1" d="M14.59,60.14c-.3-.29-.44-.34-.68-.18a8.65,8.65,0,0,0-.83.59l-2,1.56-.25-.33a41.36,41.36,0,0,1,.88-4.27l-1.2.8c-.46.31-.66.46-.81.58s-.25.39,0,.85l-.19.14c-.42-.61-.62-.91-1-1.53l.2-.13c.25.34.43.44.71.31a6.22,6.22,0,0,0,.87-.52l1.27-.83a.77.77,0,0,0,.36-.4c.06-.19,0-.34-.14-.6l.2-.12c.28.44.43.66.72,1.1a38.7,38.7,0,0,0-.76,3.8l.92-.7c.44-.33.6-.47.78-.63s.24-.34-.06-.81l.19-.15c.39.54.59.8,1,1.32Z"/><path class="cls-1" d="M13.6,65l.17-.16c.35.3.41.25.54,0s.23-.46.34-.71c-.37-.41-.55-.62-.91-1l-.65.23c-.4.15-.33.31,0,.78l-.18.15c-.47-.54-.71-.82-1.16-1.38l.18-.15c.33.32.45.38,1,.22,1.4-.39,2.09-.61,3.45-1.07l.25.2c-.54,1.06-1.05,2.18-1.5,3.25-.25.6-.24.69.06,1.06l-.17.16C14.46,66,14.17,65.65,13.6,65Zm1.86-2.5c-.48.16-.93.29-1.4.46l.75.84C15.06,63.3,15.19,63,15.46,62.52Z"/><path class="cls-1" d="M15.49,67l.17-.16c.42.35.5.36.87,0l1.69-1.76c.37-.39.35-.47,0-.85l.17-.17c.58.57.88.86,1.49,1.4l-.16.18c-.4-.3-.47-.32-.84.08l-1.65,1.79c-.36.39-.34.47,0,.87l-.16.18C16.46,67.93,16.13,67.62,15.49,67Z"/><path class="cls-1" d="M21.52,70.65a11,11,0,0,1-.93.71c-1.15-.85-1.71-1.3-2.79-2.24l.15-.18c.51.39.58.39.93,0l1.57-1.86c.34-.41.32-.49,0-.85l.15-.18c.63.54.95.8,1.6,1.31l-.15.19c-.44-.29-.51-.3-.85.12l-1.56,1.94c-.22.27-.31.4,0,.66,0,0,.26.21.29.23a.75.75,0,0,0,.69.22,2.74,2.74,0,0,0,.76-.26Z"/><path class="cls-1" d="M25.47,70.94c.1-.42.19-.91-.31-1.24a.61.61,0,0,0-.88.16c-.2.29-.11.61.24,1.17s.66,1.21.33,1.75-1.29.75-2.15.18a4,4,0,0,1-.89-.84c.05-.15.33-.76.46-1l.26.11a1.47,1.47,0,0,0,.41,1.61.62.62,0,0,0,.94-.17c.2-.31.1-.63-.23-1.19s-.6-1.23-.21-1.78,1.12-.67,1.95-.13a4.91,4.91,0,0,1,.73.61c-.1.21-.24.52-.4.89Z"/><path class="cls-1" d="M32.26,75.11a.82.82,0,0,0-.85.09l-.86.43a11.22,11.22,0,0,1,.64,1.75l-.06.05a2.5,2.5,0,0,1-1.08-.7L29.73,76a1.74,1.74,0,0,1-1.59.08,1.29,1.29,0,0,1-.77-1.74c.25-.47.63-.53,1.41-.56a1.11,1.11,0,0,1,1.57-1.45A1,1,0,0,1,31,73.66a.66.66,0,0,1-.5.37c-.2,0-.4,0-.64.06.11.21.33.7.6,1.28A3,3,0,0,0,31,75c.23-.2.27-.29-.17-.54l.1-.22c.57.26.86.38,1.45.62Zm-3.55.6a1.23,1.23,0,0,0,.92,0c-.27-.65-.44-1-.76-1.71a.77.77,0,0,0-.58.47A.85.85,0,0,0,28.71,75.71Zm1.47-3.16a.49.49,0,0,0-.64.28c-.15.29-.1.52.17,1a.81.81,0,0,0,.66-.51A.55.55,0,0,0,30.18,72.55Z"/><path class="cls-1" d="M37.34,76.21c0-.43-.07-.93-.65-1.11a.61.61,0,0,0-.8.4c-.11.34.06.62.56,1.06s1,1,.82,1.59-1,1.08-2,.77a4.7,4.7,0,0,1-1.1-.56c0-.15.11-.82.16-1.12l.28,0a1.45,1.45,0,0,0,.84,1.43.63.63,0,0,0,.87-.42c.1-.36-.09-.64-.56-1.09s-.93-1-.71-1.64.89-1,1.85-.67a5.31,5.31,0,0,1,.87.37c0,.24-.08.57-.13,1Z"/><path class="cls-1" d="M40.72,76a2.54,2.54,0,0,1,1.13.48,1.06,1.06,0,0,1,.36,1,1.41,1.41,0,0,1-1.82,1l-.2,0-.38-.18-.18.85c-.12.52-.08.56.53.74l0,.23c-.91-.18-1.37-.29-2.26-.51l0-.23c.55.08.62.07.75-.45.22-.95.34-1.43.56-2.38.13-.52.07-.59-.41-.74l.06-.23C39.6,75.71,40,75.79,40.72,76Zm-.85,2a1,1,0,0,0,.35.13c.31.07.86,0,1-.83a.83.83,0,0,0-.66-1.1.35.35,0,0,0-.26,0c-.06,0-.09.08-.11.18Z"/><path class="cls-1" d="M44.52,80.75l0-.23c.47,0,.48-.09.4-.37s-.14-.49-.22-.76c-.55-.06-.83-.09-1.38-.17-.11.19-.24.41-.34.6-.21.38,0,.46.52.57l0,.24c-.72-.09-1.07-.15-1.79-.27l0-.23c.46,0,.59,0,.91-.51.79-1.22,1.17-1.84,1.88-3.09l.33,0c.3,1.16.66,2.34,1,3.44.22.62.28.67.76.75l0,.24C45.79,80.88,45.37,80.84,44.52,80.75Zm-.28-3.11c-.25.43-.5.83-.74,1.27l1.12.14C44.46,78.49,44.39,78.21,44.24,77.64Z"/><path class="cls-1" d="M70.58,64a.36.36,0,0,1,.35-.18.57.57,0,0,1,.35.21.8.8,0,0,1,.19.47.84.84,0,0,1-.19.6l-.82,1.32a15.16,15.16,0,0,1-1.56,2,11.37,11.37,0,0,1-2.19,1.88,4.81,4.81,0,0,1-2.71.83,2.49,2.49,0,0,1-2.25-1A5,5,0,0,1,61,67.53a16.17,16.17,0,0,1,.29-3.47q.36-1.92.81-3.75a7.55,7.55,0,0,0,.16-.8,4.72,4.72,0,0,0,.06-.7,1.13,1.13,0,0,0-.11-.51.37.37,0,0,0-.35-.19c-.29,0-.62.22-1,.67a10.71,10.71,0,0,0-1.17,1.76A25.36,25.36,0,0,0,58.56,63a26.5,26.5,0,0,0-1,2.83c-.19.71-.35,1.44-.48,2.17a18.32,18.32,0,0,0-.26,2.17.79.79,0,0,1-.4.72,1.45,1.45,0,0,1-.67.2,2.49,2.49,0,0,1-2.25-1,5,5,0,0,1-.72-2.57,16.17,16.17,0,0,1,.29-3.47q.36-1.92.81-3.75a7.55,7.55,0,0,0,.16-.8,4.72,4.72,0,0,0,.06-.7A1.13,1.13,0,0,0,54,58.3a.37.37,0,0,0-.35-.19c-.33,0-.73.3-1.19.91A14.39,14.39,0,0,0,51,61.38a32.1,32.1,0,0,0-1.33,3.18,25.56,25.56,0,0,0-1,3.37c-.08.75-.14,1.51-.18,2.26a.79.79,0,0,1-.4.72,1.45,1.45,0,0,1-.67.2,2.71,2.71,0,0,1-1.78-.55,3.48,3.48,0,0,1-1-1.5,7.11,7.11,0,0,1-.41-2.19,16.18,16.18,0,0,1,.09-2.58,28.58,28.58,0,0,1,.58-3.43c.26-1.16.55-2.22.84-3.18s.58-1.77.86-2.43A5.65,5.65,0,0,1,47.23,54a1.81,1.81,0,0,1,.91-.45,5.17,5.17,0,0,1,1.27-.12,6.83,6.83,0,0,1,1.34.17,3.71,3.71,0,0,1,1.14.43,1.47,1.47,0,0,1,.62.67.87.87,0,0,1-.14.86,11.6,11.6,0,0,0-.9,1.74c-.33.78-.68,1.68-1,2.72a26.59,26.59,0,0,1,1.45-2.44,17,17,0,0,1,1.58-2,7.76,7.76,0,0,1,1.59-1.37,2.84,2.84,0,0,1,1.53-.51,2.9,2.9,0,0,1,1.6.41,2.59,2.59,0,0,1,.95,1.12,4.29,4.29,0,0,1,.37,1.62,11.59,11.59,0,0,1-.08,1.93c.43-.71.87-1.38,1.32-2a12.91,12.91,0,0,1,1.37-1.63,6.78,6.78,0,0,1,1.4-1.07,2.78,2.78,0,0,1,1.33-.38,2.61,2.61,0,0,1,1.9.66,3.43,3.43,0,0,1,.9,1.68,7.24,7.24,0,0,1,.09,2.31,14.61,14.61,0,0,1-.51,2.57l-.27.93c-.12.42-.25.88-.38,1.38s-.25,1-.35,1.55a7.13,7.13,0,0,0-.16,1.45,2.52,2.52,0,0,0,.2,1.07.69.69,0,0,0,.69.41,1.75,1.75,0,0,0,1.16-.5,7.4,7.4,0,0,0,1.07-1.16c.33-.44.61-.87.86-1.27S70.48,64.09,70.58,64Z"/><path class="cls-1" d="M84.16,65a1.18,1.18,0,0,1,.45.84,1.28,1.28,0,0,1-.29.93A15.5,15.5,0,0,1,83,68.2a12.65,12.65,0,0,1-1.73,1.41,10,10,0,0,1-2.05,1.07,6.3,6.3,0,0,1-2.33.43,9.87,9.87,0,0,1-3.73-.64,6.29,6.29,0,0,1-2.57-1.85,6.48,6.48,0,0,1-1.29-3,11,11,0,0,1,.16-4,12.34,12.34,0,0,1,1.47-4,10.25,10.25,0,0,1,2.34-2.78,7.4,7.4,0,0,1,2.89-1.49,6.71,6.71,0,0,1,3.15,0,5.14,5.14,0,0,1,1.91.88,4.08,4.08,0,0,1,1.3,1.6A5.27,5.27,0,0,1,83,58.17a8.64,8.64,0,0,1-.66,3,8.91,8.91,0,0,1-1.47,2.52A7.79,7.79,0,0,1,79,65.27,5.91,5.91,0,0,1,77,66a6.89,6.89,0,0,1-1.9.09,4.54,4.54,0,0,1-.8-.21,3.76,3.76,0,0,0,1.2,2.28,3.54,3.54,0,0,0,2.38.78,2.36,2.36,0,0,0,1.3-.4,5.64,5.64,0,0,0,1.17-1,8.61,8.61,0,0,0,.94-1.24A11.8,11.8,0,0,0,82,65.2a1.27,1.27,0,0,1,.94-.68,1.24,1.24,0,0,1,1.11.32Zm-5.66-8.9a.92.92,0,0,0-.85,0,2.71,2.71,0,0,0-1,.88,10.09,10.09,0,0,0-1,1.82,16.64,16.64,0,0,0-.95,2.83c-.14.62-.27,1.22-.37,1.81a.27.27,0,0,0,.16.08.45.45,0,0,1,.18.07,1.32,1.32,0,0,0,1.18-.3A5.74,5.74,0,0,0,77,62a10.13,10.13,0,0,0,1-1.76,14.3,14.3,0,0,0,.68-1.87,5.53,5.53,0,0,0,.23-1.54C78.81,56.43,78.71,56.16,78.5,56.06Z"/><path class="cls-1" d="M29.78,44.74a.35.35,0,0,1,.35-.21.63.63,0,0,1,.39.21,1,1,0,0,1,.22.5,1,1,0,0,1-.14.63c-.23.4-.64,1-1.22,1.8a14.71,14.71,0,0,1-2.22,2.41A14.15,14.15,0,0,1,24,52.21a9.3,9.3,0,0,1-4.2.91A11.94,11.94,0,0,1,14,51.86a9.32,9.32,0,0,1-3.67-3.45,12.07,12.07,0,0,1-1.63-5.14A19.78,19.78,0,0,1,9.2,37a22.4,22.4,0,0,1,2.19-6.05,18,18,0,0,1,3.23-4.31A12.64,12.64,0,0,1,18.43,24a10.16,10.16,0,0,1,4-.86,8.35,8.35,0,0,1,3.11.57,6.87,6.87,0,0,1,2.41,1.58,5.42,5.42,0,0,1,1.35,2.39,5.78,5.78,0,0,1,0,3,5,5,0,0,1-1,2.09A4.22,4.22,0,0,1,26.79,34a3.5,3.5,0,0,1-1.58.34,4.17,4.17,0,0,1-1.39-.23,1.74,1.74,0,0,1-.86-.6.66.66,0,0,1,0-.79,7.53,7.53,0,0,0,.71-1.59,11.1,11.1,0,0,0,.46-1.94A3.66,3.66,0,0,0,24,27.55a1,1,0,0,0-1-.68,4.38,4.38,0,0,0-1.7.52A8.34,8.34,0,0,0,19,29.2a15.88,15.88,0,0,0-2.38,3.49,20.37,20.37,0,0,0-1.81,5.53,15.09,15.09,0,0,0-.25,4.55,10.4,10.4,0,0,0,1.07,3.81,6.76,6.76,0,0,0,2.33,2.63,6.25,6.25,0,0,0,3.56,1,7.42,7.42,0,0,0,3.44-.77,11.47,11.47,0,0,0,2.5-1.73A11.15,11.15,0,0,0,29,45.84C29.43,45.25,29.67,44.89,29.78,44.74Z"/><path class="cls-1" d="M48.37,37.08a.37.37,0,0,1,.36-.19.63.63,0,0,1,.37.22,1,1,0,0,1,.18.51.9.9,0,0,1-.18.63c-.13.19-.38.58-.76,1.18a18,18,0,0,1-1.42,1.92,13.33,13.33,0,0,1-2,1.91,5.74,5.74,0,0,1-2.46,1.13A12.5,12.5,0,0,1,41,47.59,10.39,10.39,0,0,1,39,50a8.19,8.19,0,0,1-2.38,1.49,6.93,6.93,0,0,1-2.6.52,4.85,4.85,0,0,1-2.75-.79A5.88,5.88,0,0,1,29.4,49,8.61,8.61,0,0,1,28.47,46a11.56,11.56,0,0,1,.17-3.64,12.91,12.91,0,0,1,1-3.05,15.24,15.24,0,0,1,1.56-2.62A9.37,9.37,0,0,1,33,34.81a2.88,2.88,0,0,1,1.67-.69,1.12,1.12,0,0,1,.82.39,3.08,3.08,0,0,1,.6,1,3.17,3.17,0,0,1,.24,1.12,1.42,1.42,0,0,1-.24.91A13.1,13.1,0,0,0,35,39.38a14.36,14.36,0,0,0-1,2.93,18.83,18.83,0,0,0-.43,2.24,8.93,8.93,0,0,0,0,2.05,3.74,3.74,0,0,0,.44,1.51,1.14,1.14,0,0,0,1.07.6,1.3,1.3,0,0,0,.86-.44,5.58,5.58,0,0,0,.89-1.18,14.5,14.5,0,0,0,.79-1.67,14,14,0,0,0,.58-1.91,4.54,4.54,0,0,1-1.26-2.38,7.81,7.81,0,0,1-.08-2.93,6.46,6.46,0,0,1,1-2.62,3.24,3.24,0,0,1,2-1.43,1.88,1.88,0,0,1,1.49.24,3.13,3.13,0,0,1,1.2,1.42,7.5,7.5,0,0,1,.66,2.55A14.75,14.75,0,0,1,43,42a5,5,0,0,0,1.83-.71,7.7,7.7,0,0,0,1.61-1.37,9.09,9.09,0,0,0,.66-.82c.21-.3.4-.58.57-.85s.31-.51.44-.71S48.31,37.19,48.37,37.08Z"/><path class="cls-1" d="M73.77,37.08a.36.36,0,0,1,.36-.19.58.58,0,0,1,.36.22.9.9,0,0,1,.19.51.91.91,0,0,1-.19.63l-.75,1.18a18,18,0,0,1-1.42,1.92,12.94,12.94,0,0,1-2,1.91,5.65,5.65,0,0,1-2.45,1.13,12.5,12.5,0,0,1-1.44,3.2,10.65,10.65,0,0,1-2,2.36,8.32,8.32,0,0,1-2.38,1.49,6.93,6.93,0,0,1-2.6.52,4.85,4.85,0,0,1-2.75-.79A5.88,5.88,0,0,1,54.8,49,8.61,8.61,0,0,1,53.87,46,11.56,11.56,0,0,1,54,42.31a12.47,12.47,0,0,1,1-3.05,15.24,15.24,0,0,1,1.56-2.62,9.09,9.09,0,0,1,1.76-1.83,2.88,2.88,0,0,1,1.67-.69,1.12,1.12,0,0,1,.82.39,3.08,3.08,0,0,1,.6,1,3.17,3.17,0,0,1,.24,1.12,1.42,1.42,0,0,1-.24.91,13.1,13.1,0,0,0-1.12,1.89,14.36,14.36,0,0,0-1,2.93,18.83,18.83,0,0,0-.43,2.24,9.58,9.58,0,0,0,0,2.05,3.74,3.74,0,0,0,.45,1.51,1.14,1.14,0,0,0,1.07.6,1.3,1.3,0,0,0,.86-.44,5.58,5.58,0,0,0,.89-1.18,13,13,0,0,0,.78-1.67,14.06,14.06,0,0,0,.59-1.91,4.54,4.54,0,0,1-1.26-2.38,7.81,7.81,0,0,1-.08-2.93,6.32,6.32,0,0,1,1-2.62,3.24,3.24,0,0,1,2-1.43,1.88,1.88,0,0,1,1.49.24,3.26,3.26,0,0,1,1.2,1.42,7.5,7.5,0,0,1,.66,2.55A14.75,14.75,0,0,1,68.38,42a5,5,0,0,0,1.83-.71,7.7,7.7,0,0,0,1.61-1.37,9.09,9.09,0,0,0,.66-.82c.21-.3.4-.58.56-.85s.32-.51.45-.71S73.71,37.19,73.77,37.08Z"/><path class="cls-1" d="M83.66,44.71a.39.39,0,0,1,.38-.19.56.56,0,0,1,.38.22.86.86,0,0,1,.19.49.88.88,0,0,1-.19.61c-.15.23-.43.68-.85,1.36A14.64,14.64,0,0,1,82,49.29a12.17,12.17,0,0,1-2.27,1.94,4.9,4.9,0,0,1-2.79.85,2.51,2.51,0,0,1-1.64-.5,2.86,2.86,0,0,1-.87-1.36,6.57,6.57,0,0,1-.25-2,21,21,0,0,1,.19-2.41c.12-.85.27-1.73.46-2.64s.38-1.78.56-2.64a1.64,1.64,0,0,0,0-1.09,1.93,1.93,0,0,0-.62-.72,4.23,4.23,0,0,0-.94-.52,11,11,0,0,1-1-.49,6.18,6.18,0,0,1-.93-.6,1.85,1.85,0,0,1-.62-.84,4.77,4.77,0,0,1-.25-1.82,7.91,7.91,0,0,1,.32-2,5,5,0,0,1,.8-1.64,1.5,1.5,0,0,1,1.21-.67,2.21,2.21,0,0,1,2.1,1.35,6.21,6.21,0,0,1,.14,3.94,5.35,5.35,0,0,1-.16.55c-.06.2-.13.42-.22.65A14.38,14.38,0,0,0,77,37l1.8.3a2.64,2.64,0,0,1,1.26.52,2.31,2.31,0,0,1,.68.9,3.11,3.11,0,0,1,.22,1,2.71,2.71,0,0,1-.11.9l-.9,2.79A23.72,23.72,0,0,0,79.24,46a5.05,5.05,0,0,0-.11,1.88.77.77,0,0,0,.85.72,1.78,1.78,0,0,0,1.19-.52,7.44,7.44,0,0,0,1.11-1.19,15.35,15.35,0,0,0,.86-1.31C83.39,45.14,83.56,44.85,83.66,44.71Z"/><path class="cls-1" d="M57.62,22.15a28.44,28.44,0,0,0-2.1,4.75c-.76,1.79-1.49,3.6-2.17,5.43-1.51,4.11-3,8.55-3.23,13a6.74,6.74,0,0,0,.22,2.4,1.11,1.11,0,0,0,1.09.89,1.78,1.78,0,0,0,1.19-.52,7.44,7.44,0,0,0,1.11-1.19,15.35,15.35,0,0,0,.86-1.31c.25-.42.42-.71.52-.85a.39.39,0,0,1,.38-.19.56.56,0,0,1,.38.22.86.86,0,0,1,.19.49.88.88,0,0,1-.19.61c-.15.23-.43.68-.85,1.36a14.64,14.64,0,0,1-1.62,2.09,12.17,12.17,0,0,1-2.27,1.94,4.9,4.9,0,0,1-2.79.85,2.49,2.49,0,0,1-2.25-1.16,6.88,6.88,0,0,1-.92-3.09,22.18,22.18,0,0,1,.11-4.4c.83-7.25,3.53-13.91,6.06-20.68.09-.24.18-.48.28-.71a6.42,6.42,0,0,1,.71-1.5,1.93,1.93,0,0,1,.93-.46,5.47,5.47,0,0,1,1.3-.12,7.24,7.24,0,0,1,1.39.17,4.2,4.2,0,0,1,1.17.44,1.5,1.5,0,0,1,.64.69A.9.9,0,0,1,57.62,22.15Z"/><path class="cls-1" d="M52.89,18.67s4.26-.93,5.84,1.43a14.15,14.15,0,0,1,2.42-3.71,1.11,1.11,0,0,0,0-1.32,4.91,4.91,0,0,0-4.9-1.58,2.48,2.48,0,0,0-1.7,1.13A16.37,16.37,0,0,0,52.89,18.67Z"/><path class="cls-1" d="M59.09,14.44a73.4,73.4,0,0,1,12.79,4.14,55.35,55.35,0,0,1,11.75,6.78c.91.69,1.8,1.41,2.65,2.18s1.68,1.55,2.47,2.39c.4.41.78.85,1.17,1.28s.74.87,1.1,1.33c.17.23.36.45.53.69l.52.71c.17.23.33.48.49.72s.32.49.48.74c.31.5.59,1,.88,1.52l.41.78c.13.26.25.53.38.79a29.51,29.51,0,0,1,2.18,6.66,28.83,28.83,0,0,1,.5,3.46A33.11,33.11,0,0,1,95.61,62.3a34,34,0,0,1-1.3,3.2c-.12.26-.24.52-.37.78l-.4.78c-.28.51-.56,1-.87,1.51a31.59,31.59,0,0,1-2,2.86c-.71.91-1.47,1.78-2.26,2.61a39.08,39.08,0,0,1-11.07,8c-1,.5-2.06.95-3.13,1.36s-2.13.78-3.23,1.09a34.13,34.13,0,0,1-3.32.8l-1.65.3-1.64.26a70,70,0,0,1-13.33.73,65.29,65.29,0,0,1-13.2-1.92,61.5,61.5,0,0,1-12.52-4.55,49.75,49.75,0,0,1-5.79-3.35,43.65,43.65,0,0,1-5.26-4.13,35.82,35.82,0,0,1-8-10.68c-.51-1-.94-2-1.35-3.06-.1-.26-.19-.52-.28-.78s-.2-.52-.28-.79c-.17-.53-.35-1.06-.49-1.59a37.33,37.33,0,0,1-1.23-6.54l-.07-.82c0-.28,0-.56-.05-.83s0-.55,0-.83l0-.83V45l0-.83c0-.27,0-.55.05-.82s0-.55.06-.83A36.77,36.77,0,0,1,3.81,36L4,35.25c.08-.26.15-.52.25-.78.18-.52.35-1,.55-1.55a28.93,28.93,0,0,1,1.33-3,26,26,0,0,1,3.66-5.43,27,27,0,0,0-3.35,5.57,27.86,27.86,0,0,0-1.17,3c-.18.51-.31,1-.47,1.56-.08.25-.14.52-.2.78l-.2.78a36.48,36.48,0,0,0-.87,6.4A35.44,35.44,0,0,0,3.86,49a34.29,34.29,0,0,0,1.42,6.25c.15.51.34,1,.52,1.51.09.26.19.5.29.75l.3.74c.43,1,.87,1.95,1.38,2.88l.38.7.41.69.2.34.21.34.43.67c.14.23.3.44.45.66s.29.44.46.65c.32.42.62.86,1,1.27a34.64,34.64,0,0,0,4.4,4.58A46.27,46.27,0,0,0,26.39,77.9,59,59,0,0,0,38.49,82c2.09.47,4.19.85,6.3,1.12s4.24.42,6.37.47a67.81,67.81,0,0,0,12.72-.94l1.57-.28L67,82c1-.22,2-.48,3-.79s2-.65,2.94-1,1.91-.82,2.84-1.29a35.5,35.5,0,0,0,9.93-7.39,29.78,29.78,0,0,0,2-2.36,26.61,26.61,0,0,0,1.7-2.53c.27-.44.5-.89.74-1.33l.34-.68c.11-.23.22-.47.32-.7A30,30,0,0,0,93.37,49a27.67,27.67,0,0,0-.46-3,30.05,30.05,0,0,0-.8-2.92A25.91,25.91,0,0,0,91,40.26c-.11-.23-.22-.46-.34-.68l-.35-.67c-.25-.43-.5-.87-.77-1.29-.14-.22-.27-.43-.42-.63s-.28-.42-.43-.62l-.45-.61-.47-.6c-.32-.4-.66-.79-1-1.18s-.68-.76-1-1.13c-.71-.74-1.46-1.45-2.24-2.13s-1.58-1.34-2.41-2a51.61,51.61,0,0,0-10.88-6.19,72.64,72.64,0,0,0-12.05-3.87Z"/><path class="cls-2" d="M14.59,60.14c-.3-.29-.44-.34-.68-.18a8.65,8.65,0,0,0-.83.59l-2,1.56-.25-.33a41.36,41.36,0,0,1,.88-4.27l-1.2.8c-.46.31-.66.46-.81.58s-.25.39,0,.85l-.19.14c-.42-.61-.62-.91-1-1.53l.2-.13c.25.34.43.44.71.31a6.22,6.22,0,0,0,.87-.52l1.27-.83a.77.77,0,0,0,.36-.4c.06-.19,0-.34-.14-.6l.2-.12c.28.44.43.66.72,1.1a38.7,38.7,0,0,0-.76,3.8l.92-.7c.44-.33.6-.47.78-.63s.24-.34-.06-.81l.19-.15c.39.54.59.8,1,1.32Z"/><path class="cls-2" d="M13.6,65l.17-.16c.35.3.41.25.54,0s.23-.46.34-.71c-.37-.41-.55-.62-.91-1l-.65.23c-.4.15-.33.31,0,.78l-.18.15c-.47-.54-.71-.82-1.16-1.38l.18-.15c.33.32.45.38,1,.22,1.4-.39,2.09-.61,3.45-1.07l.25.2c-.54,1.06-1.05,2.18-1.5,3.25-.25.6-.24.69.06,1.06l-.17.16C14.46,66,14.17,65.65,13.6,65Zm1.86-2.5c-.48.16-.93.29-1.4.46l.75.84C15.06,63.3,15.19,63,15.46,62.52Z"/><path class="cls-2" d="M15.49,67l.17-.16c.42.35.5.36.87,0l1.69-1.76c.37-.39.35-.47,0-.85l.17-.17c.58.57.88.86,1.49,1.4l-.16.18c-.4-.3-.47-.32-.84.08l-1.65,1.79c-.36.39-.34.47,0,.87l-.16.18C16.46,67.93,16.13,67.62,15.49,67Z"/><path class="cls-2" d="M21.52,70.65a11,11,0,0,1-.93.71c-1.15-.85-1.71-1.3-2.79-2.24l.15-.18c.51.39.58.39.93,0l1.57-1.86c.34-.41.32-.49,0-.85l.15-.18c.63.54.95.8,1.6,1.31l-.15.19c-.44-.29-.51-.3-.85.12l-1.56,1.94c-.22.27-.31.4,0,.66,0,0,.26.21.29.23a.75.75,0,0,0,.69.22,2.74,2.74,0,0,0,.76-.26Z"/><path class="cls-2" d="M25.47,70.94c.1-.42.19-.91-.31-1.24a.61.61,0,0,0-.88.16c-.2.29-.11.61.24,1.17s.66,1.21.33,1.75-1.29.75-2.15.18a4,4,0,0,1-.89-.84c.05-.15.33-.76.46-1l.26.11a1.47,1.47,0,0,0,.41,1.61.62.62,0,0,0,.94-.17c.2-.31.1-.63-.23-1.19s-.6-1.23-.21-1.78,1.12-.67,1.95-.13a4.91,4.91,0,0,1,.73.61c-.1.21-.24.52-.4.89Z"/><path class="cls-2" d="M32.26,75.11a.82.82,0,0,0-.85.09l-.86.43a11.22,11.22,0,0,1,.64,1.75l-.06.05a2.5,2.5,0,0,1-1.08-.7L29.73,76a1.74,1.74,0,0,1-1.59.08,1.29,1.29,0,0,1-.77-1.74c.25-.47.63-.53,1.41-.56a1.11,1.11,0,0,1,1.57-1.45A1,1,0,0,1,31,73.66a.66.66,0,0,1-.5.37c-.2,0-.4,0-.64.06.11.21.33.7.6,1.28A3,3,0,0,0,31,75c.23-.2.27-.29-.17-.54l.1-.22c.57.26.86.38,1.45.62Zm-3.55.6a1.23,1.23,0,0,0,.92,0c-.27-.65-.44-1-.76-1.71a.77.77,0,0,0-.58.47A.85.85,0,0,0,28.71,75.71Zm1.47-3.16a.49.49,0,0,0-.64.28c-.15.29-.1.52.17,1a.81.81,0,0,0,.66-.51A.55.55,0,0,0,30.18,72.55Z"/><path class="cls-2" d="M37.34,76.21c0-.43-.07-.93-.65-1.11a.61.61,0,0,0-.8.4c-.11.34.06.62.56,1.06s1,1,.82,1.59-1,1.08-2,.77a4.7,4.7,0,0,1-1.1-.56c0-.15.11-.82.16-1.12l.28,0a1.45,1.45,0,0,0,.84,1.43.63.63,0,0,0,.87-.42c.1-.36-.09-.64-.56-1.09s-.93-1-.71-1.64.89-1,1.85-.67a5.31,5.31,0,0,1,.87.37c0,.24-.08.57-.13,1Z"/><path class="cls-2" d="M40.72,76a2.54,2.54,0,0,1,1.13.48,1.06,1.06,0,0,1,.36,1,1.41,1.41,0,0,1-1.82,1l-.2,0-.38-.18-.18.85c-.12.52-.08.56.53.74l0,.23c-.91-.18-1.37-.29-2.26-.51l0-.23c.55.08.62.07.75-.45.22-.95.34-1.43.56-2.38.13-.52.07-.59-.41-.74l.06-.23C39.6,75.71,40,75.79,40.72,76Zm-.85,2a1,1,0,0,0,.35.13c.31.07.86,0,1-.83a.83.83,0,0,0-.66-1.1.35.35,0,0,0-.26,0c-.06,0-.09.08-.11.18Z"/><path class="cls-2" d="M44.52,80.75l0-.23c.47,0,.48-.09.4-.37s-.14-.49-.22-.76c-.55-.06-.83-.09-1.38-.17-.11.19-.24.41-.34.6-.21.38,0,.46.52.57l0,.24c-.72-.09-1.07-.15-1.79-.27l0-.23c.46,0,.59,0,.91-.51.79-1.22,1.17-1.84,1.88-3.09l.33,0c.3,1.16.66,2.34,1,3.44.22.62.28.67.76.75l0,.24C45.79,80.88,45.37,80.84,44.52,80.75Zm-.28-3.11c-.25.43-.5.83-.74,1.27l1.12.14C44.46,78.49,44.39,78.21,44.24,77.64Z"/><path class="cls-2" d="M70.58,64a.36.36,0,0,1,.35-.18.57.57,0,0,1,.35.21.8.8,0,0,1,.19.47.84.84,0,0,1-.19.6l-.82,1.32a15.16,15.16,0,0,1-1.56,2,11.37,11.37,0,0,1-2.19,1.88,4.81,4.81,0,0,1-2.71.83,2.49,2.49,0,0,1-2.25-1A5,5,0,0,1,61,67.53a16.17,16.17,0,0,1,.29-3.47q.36-1.92.81-3.75a7.55,7.55,0,0,0,.16-.8,4.72,4.72,0,0,0,.06-.7,1.13,1.13,0,0,0-.11-.51.37.37,0,0,0-.35-.19c-.29,0-.62.22-1,.67a10.71,10.71,0,0,0-1.17,1.76A25.36,25.36,0,0,0,58.56,63a26.5,26.5,0,0,0-1,2.83c-.19.71-.35,1.44-.48,2.17a18.32,18.32,0,0,0-.26,2.17.79.79,0,0,1-.4.72,1.45,1.45,0,0,1-.67.2,2.49,2.49,0,0,1-2.25-1,5,5,0,0,1-.72-2.57,16.17,16.17,0,0,1,.29-3.47q.36-1.92.81-3.75a7.55,7.55,0,0,0,.16-.8,4.72,4.72,0,0,0,.06-.7A1.13,1.13,0,0,0,54,58.3a.37.37,0,0,0-.35-.19c-.33,0-.73.3-1.19.91A14.39,14.39,0,0,0,51,61.38a32.1,32.1,0,0,0-1.33,3.18,25.56,25.56,0,0,0-1,3.37c-.08.75-.14,1.51-.18,2.26a.79.79,0,0,1-.4.72,1.45,1.45,0,0,1-.67.2,2.71,2.71,0,0,1-1.78-.55,3.48,3.48,0,0,1-1-1.5,7.11,7.11,0,0,1-.41-2.19,16.18,16.18,0,0,1,.09-2.58,28.58,28.58,0,0,1,.58-3.43c.26-1.16.55-2.22.84-3.18s.58-1.77.86-2.43A5.65,5.65,0,0,1,47.23,54a1.81,1.81,0,0,1,.91-.45,5.17,5.17,0,0,1,1.27-.12,6.83,6.83,0,0,1,1.34.17,3.71,3.71,0,0,1,1.14.43,1.47,1.47,0,0,1,.62.67.87.87,0,0,1-.14.86,11.6,11.6,0,0,0-.9,1.74c-.33.78-.68,1.68-1,2.72a26.59,26.59,0,0,1,1.45-2.44,17,17,0,0,1,1.58-2,7.76,7.76,0,0,1,1.59-1.37,2.84,2.84,0,0,1,1.53-.51,2.9,2.9,0,0,1,1.6.41,2.59,2.59,0,0,1,.95,1.12,4.29,4.29,0,0,1,.37,1.62,11.59,11.59,0,0,1-.08,1.93c.43-.71.87-1.38,1.32-2a12.91,12.91,0,0,1,1.37-1.63,6.78,6.78,0,0,1,1.4-1.07,2.78,2.78,0,0,1,1.33-.38,2.61,2.61,0,0,1,1.9.66,3.43,3.43,0,0,1,.9,1.68,7.24,7.24,0,0,1,.09,2.31,14.61,14.61,0,0,1-.51,2.57l-.27.93c-.12.42-.25.88-.38,1.38s-.25,1-.35,1.55a7.13,7.13,0,0,0-.16,1.45,2.52,2.52,0,0,0,.2,1.07.69.69,0,0,0,.69.41,1.75,1.75,0,0,0,1.16-.5,7.4,7.4,0,0,0,1.07-1.16c.33-.44.61-.87.86-1.27S70.48,64.09,70.58,64Z"/><path class="cls-2" d="M84.16,65a1.18,1.18,0,0,1,.45.84,1.28,1.28,0,0,1-.29.93A15.5,15.5,0,0,1,83,68.2a12.65,12.65,0,0,1-1.73,1.41,10,10,0,0,1-2.05,1.07,6.3,6.3,0,0,1-2.33.43,9.87,9.87,0,0,1-3.73-.64,6.29,6.29,0,0,1-2.57-1.85,6.48,6.48,0,0,1-1.29-3,11,11,0,0,1,.16-4,12.34,12.34,0,0,1,1.47-4,10.25,10.25,0,0,1,2.34-2.78,7.4,7.4,0,0,1,2.89-1.49,6.71,6.71,0,0,1,3.15,0,5.14,5.14,0,0,1,1.91.88,4.08,4.08,0,0,1,1.3,1.6A5.27,5.27,0,0,1,83,58.17a8.64,8.64,0,0,1-.66,3,8.91,8.91,0,0,1-1.47,2.52A7.79,7.79,0,0,1,79,65.27,5.91,5.91,0,0,1,77,66a6.89,6.89,0,0,1-1.9.09,4.54,4.54,0,0,1-.8-.21,3.76,3.76,0,0,0,1.2,2.28,3.54,3.54,0,0,0,2.38.78,2.36,2.36,0,0,0,1.3-.4,5.64,5.64,0,0,0,1.17-1,8.61,8.61,0,0,0,.94-1.24A11.8,11.8,0,0,0,82,65.2a1.27,1.27,0,0,1,.94-.68,1.24,1.24,0,0,1,1.11.32Zm-5.66-8.9a.92.92,0,0,0-.85,0,2.71,2.71,0,0,0-1,.88,10.09,10.09,0,0,0-1,1.82,16.64,16.64,0,0,0-.95,2.83c-.14.62-.27,1.22-.37,1.81a.27.27,0,0,0,.16.08.45.45,0,0,1,.18.07,1.32,1.32,0,0,0,1.18-.3A5.74,5.74,0,0,0,77,62a10.13,10.13,0,0,0,1-1.76,14.3,14.3,0,0,0,.68-1.87,5.53,5.53,0,0,0,.23-1.54C78.81,56.43,78.71,56.16,78.5,56.06Z"/><path class="cls-2" d="M29.78,44.74a.35.35,0,0,1,.35-.21.63.63,0,0,1,.39.21,1,1,0,0,1,.22.5,1,1,0,0,1-.14.63c-.23.4-.64,1-1.22,1.8a14.71,14.71,0,0,1-2.22,2.41A14.15,14.15,0,0,1,24,52.21a9.3,9.3,0,0,1-4.2.91A11.94,11.94,0,0,1,14,51.86a9.32,9.32,0,0,1-3.67-3.45,12.07,12.07,0,0,1-1.63-5.14A19.78,19.78,0,0,1,9.2,37a22.4,22.4,0,0,1,2.19-6.05,18,18,0,0,1,3.23-4.31A12.64,12.64,0,0,1,18.43,24a10.16,10.16,0,0,1,4-.86,8.35,8.35,0,0,1,3.11.57,6.87,6.87,0,0,1,2.41,1.58,5.42,5.42,0,0,1,1.35,2.39,5.78,5.78,0,0,1,0,3,5,5,0,0,1-1,2.09A4.22,4.22,0,0,1,26.79,34a3.5,3.5,0,0,1-1.58.34,4.17,4.17,0,0,1-1.39-.23,1.74,1.74,0,0,1-.86-.6.66.66,0,0,1,0-.79,7.53,7.53,0,0,0,.71-1.59,11.1,11.1,0,0,0,.46-1.94A3.66,3.66,0,0,0,24,27.55a1,1,0,0,0-1-.68,4.38,4.38,0,0,0-1.7.52A8.34,8.34,0,0,0,19,29.2a15.88,15.88,0,0,0-2.38,3.49,20.37,20.37,0,0,0-1.81,5.53,15.09,15.09,0,0,0-.25,4.55,10.4,10.4,0,0,0,1.07,3.81,6.76,6.76,0,0,0,2.33,2.63,6.25,6.25,0,0,0,3.56,1,7.42,7.42,0,0,0,3.44-.77,11.47,11.47,0,0,0,2.5-1.73A11.15,11.15,0,0,0,29,45.84C29.43,45.25,29.67,44.89,29.78,44.74Z"/><path class="cls-2" d="M48.37,37.08a.37.37,0,0,1,.36-.19.63.63,0,0,1,.37.22,1,1,0,0,1,.18.51.9.9,0,0,1-.18.63c-.13.19-.38.58-.76,1.18a18,18,0,0,1-1.42,1.92,13.33,13.33,0,0,1-2,1.91,5.74,5.74,0,0,1-2.46,1.13A12.5,12.5,0,0,1,41,47.59,10.39,10.39,0,0,1,39,50a8.19,8.19,0,0,1-2.38,1.49,6.93,6.93,0,0,1-2.6.52,4.85,4.85,0,0,1-2.75-.79A5.88,5.88,0,0,1,29.4,49,8.61,8.61,0,0,1,28.47,46a11.56,11.56,0,0,1,.17-3.64,12.91,12.91,0,0,1,1-3.05,15.24,15.24,0,0,1,1.56-2.62A9.37,9.37,0,0,1,33,34.81a2.88,2.88,0,0,1,1.67-.69,1.12,1.12,0,0,1,.82.39,3.08,3.08,0,0,1,.6,1,3.17,3.17,0,0,1,.24,1.12,1.42,1.42,0,0,1-.24.91A13.1,13.1,0,0,0,35,39.38a14.36,14.36,0,0,0-1,2.93,18.83,18.83,0,0,0-.43,2.24,8.93,8.93,0,0,0,0,2.05,3.74,3.74,0,0,0,.44,1.51,1.14,1.14,0,0,0,1.07.6,1.3,1.3,0,0,0,.86-.44,5.58,5.58,0,0,0,.89-1.18,14.5,14.5,0,0,0,.79-1.67,14,14,0,0,0,.58-1.91,4.54,4.54,0,0,1-1.26-2.38,7.81,7.81,0,0,1-.08-2.93,6.46,6.46,0,0,1,1-2.62,3.24,3.24,0,0,1,2-1.43,1.88,1.88,0,0,1,1.49.24,3.13,3.13,0,0,1,1.2,1.42,7.5,7.5,0,0,1,.66,2.55A14.75,14.75,0,0,1,43,42a5,5,0,0,0,1.83-.71,7.7,7.7,0,0,0,1.61-1.37,9.09,9.09,0,0,0,.66-.82c.21-.3.4-.58.57-.85s.31-.51.44-.71S48.31,37.19,48.37,37.08Z"/><path class="cls-2" d="M73.77,37.08a.36.36,0,0,1,.36-.19.58.58,0,0,1,.36.22.9.9,0,0,1,.19.51.91.91,0,0,1-.19.63l-.75,1.18a18,18,0,0,1-1.42,1.92,12.94,12.94,0,0,1-2,1.91,5.65,5.65,0,0,1-2.45,1.13,12.5,12.5,0,0,1-1.44,3.2,10.65,10.65,0,0,1-2,2.36,8.32,8.32,0,0,1-2.38,1.49,6.93,6.93,0,0,1-2.6.52,4.85,4.85,0,0,1-2.75-.79A5.88,5.88,0,0,1,54.8,49,8.61,8.61,0,0,1,53.87,46,11.56,11.56,0,0,1,54,42.31a12.47,12.47,0,0,1,1-3.05,15.24,15.24,0,0,1,1.56-2.62,9.09,9.09,0,0,1,1.76-1.83,2.88,2.88,0,0,1,1.67-.69,1.12,1.12,0,0,1,.82.39,3.08,3.08,0,0,1,.6,1,3.17,3.17,0,0,1,.24,1.12,1.42,1.42,0,0,1-.24.91,13.1,13.1,0,0,0-1.12,1.89,14.36,14.36,0,0,0-1,2.93,18.83,18.83,0,0,0-.43,2.24,9.58,9.58,0,0,0,0,2.05,3.74,3.74,0,0,0,.45,1.51,1.14,1.14,0,0,0,1.07.6,1.3,1.3,0,0,0,.86-.44,5.58,5.58,0,0,0,.89-1.18,13,13,0,0,0,.78-1.67,14.06,14.06,0,0,0,.59-1.91,4.54,4.54,0,0,1-1.26-2.38,7.81,7.81,0,0,1-.08-2.93,6.32,6.32,0,0,1,1-2.62,3.24,3.24,0,0,1,2-1.43,1.88,1.88,0,0,1,1.49.24,3.26,3.26,0,0,1,1.2,1.42,7.5,7.5,0,0,1,.66,2.55A14.75,14.75,0,0,1,68.38,42a5,5,0,0,0,1.83-.71,7.7,7.7,0,0,0,1.61-1.37,9.09,9.09,0,0,0,.66-.82c.21-.3.4-.58.56-.85s.32-.51.45-.71S73.71,37.19,73.77,37.08Z"/><path class="cls-2" d="M83.66,44.71a.39.39,0,0,1,.38-.19.56.56,0,0,1,.38.22.86.86,0,0,1,.19.49.88.88,0,0,1-.19.61c-.15.23-.43.68-.85,1.36A14.64,14.64,0,0,1,82,49.29a12.17,12.17,0,0,1-2.27,1.94,4.9,4.9,0,0,1-2.79.85,2.51,2.51,0,0,1-1.64-.5,2.86,2.86,0,0,1-.87-1.36,6.57,6.57,0,0,1-.25-2,21,21,0,0,1,.19-2.41c.12-.85.27-1.73.46-2.64s.38-1.78.56-2.64a1.64,1.64,0,0,0,0-1.09,1.93,1.93,0,0,0-.62-.72,4.23,4.23,0,0,0-.94-.52,11,11,0,0,1-1-.49,6.18,6.18,0,0,1-.93-.6,1.85,1.85,0,0,1-.62-.84,4.77,4.77,0,0,1-.25-1.82,7.91,7.91,0,0,1,.32-2,5,5,0,0,1,.8-1.64,1.5,1.5,0,0,1,1.21-.67,2.21,2.21,0,0,1,2.1,1.35,6.21,6.21,0,0,1,.14,3.94,5.35,5.35,0,0,1-.16.55c-.06.2-.13.42-.22.65A14.38,14.38,0,0,0,77,37l1.8.3a2.64,2.64,0,0,1,1.26.52,2.31,2.31,0,0,1,.68.9,3.11,3.11,0,0,1,.22,1,2.71,2.71,0,0,1-.11.9l-.9,2.79A23.72,23.72,0,0,0,79.24,46a5.05,5.05,0,0,0-.11,1.88.77.77,0,0,0,.85.72,1.78,1.78,0,0,0,1.19-.52,7.44,7.44,0,0,0,1.11-1.19,15.35,15.35,0,0,0,.86-1.31C83.39,45.14,83.56,44.85,83.66,44.71Z"/><path class="cls-2" d="M57.62,22.15a28.44,28.44,0,0,0-2.1,4.75c-.76,1.79-1.49,3.6-2.17,5.43-1.51,4.11-3,8.55-3.23,13a6.74,6.74,0,0,0,.22,2.4,1.11,1.11,0,0,0,1.09.89,1.78,1.78,0,0,0,1.19-.52,7.44,7.44,0,0,0,1.11-1.19,15.35,15.35,0,0,0,.86-1.31c.25-.42.42-.71.52-.85a.39.39,0,0,1,.38-.19.56.56,0,0,1,.38.22.86.86,0,0,1,.19.49.88.88,0,0,1-.19.61c-.15.23-.43.68-.85,1.36a14.64,14.64,0,0,1-1.62,2.09,12.17,12.17,0,0,1-2.27,1.94,4.9,4.9,0,0,1-2.79.85,2.49,2.49,0,0,1-2.25-1.16,6.88,6.88,0,0,1-.92-3.09,22.18,22.18,0,0,1,.11-4.4c.83-7.25,3.53-13.91,6.06-20.68.09-.24.18-.48.28-.71a6.42,6.42,0,0,1,.71-1.5,1.93,1.93,0,0,1,.93-.46,5.47,5.47,0,0,1,1.3-.12,7.24,7.24,0,0,1,1.39.17,4.2,4.2,0,0,1,1.17.44,1.5,1.5,0,0,1,.64.69A.9.9,0,0,1,57.62,22.15Z"/><path class="cls-2" d="M52.89,18.67s4.26-.93,5.84,1.43a14.15,14.15,0,0,1,2.42-3.71,1.11,1.11,0,0,0,0-1.32,4.91,4.91,0,0,0-4.9-1.58,2.48,2.48,0,0,0-1.7,1.13A16.37,16.37,0,0,0,52.89,18.67Z"/><path class="cls-2" d="M59.09,14.44a73.4,73.4,0,0,1,12.79,4.14,55.35,55.35,0,0,1,11.75,6.78c.91.69,1.8,1.41,2.65,2.18s1.68,1.55,2.47,2.39c.4.41.78.85,1.17,1.28s.74.87,1.1,1.33c.17.23.36.45.53.69l.52.71c.17.23.33.48.49.72s.32.49.48.74c.31.5.59,1,.88,1.52l.41.78c.13.26.25.53.38.79a29.51,29.51,0,0,1,2.18,6.66,28.83,28.83,0,0,1,.5,3.46A33.11,33.11,0,0,1,95.61,62.3a34,34,0,0,1-1.3,3.2c-.12.26-.24.52-.37.78l-.4.78c-.28.51-.56,1-.87,1.51a31.59,31.59,0,0,1-2,2.86c-.71.91-1.47,1.78-2.26,2.61a39.08,39.08,0,0,1-11.07,8c-1,.5-2.06.95-3.13,1.36s-2.13.78-3.23,1.09a34.13,34.13,0,0,1-3.32.8l-1.65.3-1.64.26a70,70,0,0,1-13.33.73,65.29,65.29,0,0,1-13.2-1.92,61.5,61.5,0,0,1-12.52-4.55,49.75,49.75,0,0,1-5.79-3.35,43.65,43.65,0,0,1-5.26-4.13,35.82,35.82,0,0,1-8-10.68c-.51-1-.94-2-1.35-3.06-.1-.26-.19-.52-.28-.78s-.2-.52-.28-.79c-.17-.53-.35-1.06-.49-1.59a37.33,37.33,0,0,1-1.23-6.54l-.07-.82c0-.28,0-.56-.05-.83s0-.55,0-.83l0-.83V45l0-.83c0-.27,0-.55.05-.82s0-.55.06-.83A36.77,36.77,0,0,1,3.81,36L4,35.25c.08-.26.15-.52.25-.78.18-.52.35-1,.55-1.55a28.93,28.93,0,0,1,1.33-3,26,26,0,0,1,3.66-5.43,27,27,0,0,0-3.35,5.57,27.86,27.86,0,0,0-1.17,3c-.18.51-.31,1-.47,1.56-.08.25-.14.52-.2.78l-.2.78a36.48,36.48,0,0,0-.87,6.4A35.44,35.44,0,0,0,3.86,49a34.29,34.29,0,0,0,1.42,6.25c.15.51.34,1,.52,1.51.09.26.19.5.29.75l.3.74c.43,1,.87,1.95,1.38,2.88l.38.7.41.69.2.34.21.34.43.67c.14.23.3.44.45.66s.29.44.46.65c.32.42.62.86,1,1.27a34.64,34.64,0,0,0,4.4,4.58A46.27,46.27,0,0,0,26.39,77.9,59,59,0,0,0,38.49,82c2.09.47,4.19.85,6.3,1.12s4.24.42,6.37.47a67.81,67.81,0,0,0,12.72-.94l1.57-.28L67,82c1-.22,2-.48,3-.79s2-.65,2.94-1,1.91-.82,2.84-1.29a35.5,35.5,0,0,0,9.93-7.39,29.78,29.78,0,0,0,2-2.36,26.61,26.61,0,0,0,1.7-2.53c.27-.44.5-.89.74-1.33l.34-.68c.11-.23.22-.47.32-.7A30,30,0,0,0,93.37,49a27.67,27.67,0,0,0-.46-3,30.05,30.05,0,0,0-.8-2.92A25.91,25.91,0,0,0,91,40.26c-.11-.23-.22-.46-.34-.68l-.35-.67c-.25-.43-.5-.87-.77-1.29-.14-.22-.27-.43-.42-.63s-.28-.42-.43-.62l-.45-.61-.47-.6c-.32-.4-.66-.79-1-1.18s-.68-.76-1-1.13c-.71-.74-1.46-1.45-2.24-2.13s-1.58-1.34-2.41-2a51.61,51.61,0,0,0-10.88-6.19,72.64,72.64,0,0,0-12.05-3.87Z"/></svg>